<svg width="20" height="20" viewBox="0 0 20 20" fill="none" xmlns="http://www.w3.org/2000/svg">
<g clip-path="url(#clip0_0_1)">
<path d="M16.2269 19.3524L9.99995 13.1254L3.77295 19.3524C2.90945 20.2159 1.51045 20.2159 0.646946 19.3524C-0.216055 18.4889 -0.216055 17.0904 0.646946 16.2269L6.87395 9.99995L0.646946 3.77295C-0.216055 2.90945 -0.216055 1.51045 0.646946 0.646946C1.51045 -0.216056 2.90945 -0.216056 3.77295 0.646946L9.99995 6.87395L16.2269 0.646946C17.0904 -0.216056 18.4889 -0.216056 19.3524 0.646946C20.2159 1.51045 20.2159 2.90945 19.3524 3.77295L13.1254 9.99995L19.3524 16.2269C20.2159 17.0904 20.2159 18.4889 19.3524 19.3524C18.4889 20.2159 17.0904 20.2159 16.2269 19.3524Z" fill="#016c2f"/>
</g>
<defs>
<clipPath id="clip0_0_1">
<rect width="20" height="20" fill="white"/>
</clipPath>
</defs>
</svg>