<svg width="46" height="30" viewBox="0 0 46 30" fill="none" xmlns="http://www.w3.org/2000/svg">
<path d="M3 30H43C44.375 30 45.5 28.875 45.5 27.5C45.5 26.125 44.375 25 43 25H3C1.625 25 0.5 26.125 0.5 27.5C0.5 28.875 1.625 30 3 30ZM3 17.5H43C44.375 17.5 45.5 16.375 45.5 15C45.5 13.625 44.375 12.5 43 12.5H3C1.625 12.5 0.5 13.625 0.5 15C0.5 16.375 1.625 17.5 3 17.5ZM0.5 2.5C0.5 3.875 1.625 5 3 5H43C44.375 5 45.5 3.875 45.5 2.5C45.5 1.125 44.375 0 43 0H3C1.625 0 0.5 1.125 0.5 2.5Z" fill="#016c2f"/>
</svg>