<svg width="31" height="31" viewBox="0 0 31 31" fill="none" xmlns="http://www.w3.org/2000/svg">
<rect opacity="0.1" width="31" height="31" rx="15.5" fill="#0C2D3F"/>
<path d="M20.8029 20.8512L18.5381 18.593C19.2688 17.6621 19.6653 16.5125 19.6638 15.329C19.6638 14.275 19.3513 13.2447 18.7657 12.3684C18.1802 11.492 17.3479 10.809 16.3742 10.4056C15.4004 10.0023 14.3289 9.89678 13.2952 10.1024C12.2615 10.308 11.312 10.8156 10.5667 11.5608C9.82141 12.3061 9.31388 13.2556 9.10826 14.2894C8.90264 15.3231 9.00817 16.3946 9.41151 17.3683C9.81485 18.342 10.4979 19.1743 11.3742 19.7599C12.2506 20.3454 13.2809 20.658 14.3348 20.658C15.5183 20.6594 16.6679 20.263 17.5989 19.5322L19.857 21.797C19.9189 21.8595 19.9926 21.909 20.0738 21.9429C20.155 21.9767 20.242 21.9941 20.33 21.9941C20.4179 21.9941 20.505 21.9767 20.5861 21.9429C20.6673 21.909 20.741 21.8595 20.8029 21.797C20.8653 21.7351 20.9149 21.6614 20.9487 21.5803C20.9825 21.4991 20.9999 21.412 20.9999 21.3241C20.9999 21.2362 20.9825 21.1491 20.9487 21.0679C20.9149 20.9867 20.8653 20.9131 20.8029 20.8512ZM10.3381 15.329C10.3381 14.5385 10.5725 13.7658 11.0117 13.1085C11.4508 12.4513 12.0751 11.939 12.8054 11.6365C13.5357 11.334 14.3393 11.2548 15.1146 11.409C15.8899 11.5633 16.602 11.9439 17.161 12.5029C17.7199 13.0618 18.1006 13.774 18.2548 14.5493C18.409 15.3246 18.3299 16.1282 18.0274 16.8585C17.7249 17.5888 17.2126 18.213 16.5553 18.6522C15.8981 19.0913 15.1253 19.3257 14.3348 19.3257C13.2748 19.3257 12.2583 18.9046 11.5087 18.1551C10.7592 17.4056 10.3381 16.389 10.3381 15.329Z" fill="#0C2D3F"/>
</svg>
